<?xml version="1.0" encoding="UTF-8" standalone="no"?>
<svg
   xmlns:dc="http://purl.org/dc/elements/1.1/"
   xmlns:cc="http://creativecommons.org/ns#"
   xmlns:rdf="http://www.w3.org/1999/02/22-rdf-syntax-ns#"
   xmlns:svg="http://www.w3.org/2000/svg"
   xmlns="http://www.w3.org/2000/svg"
   xmlns:sodipodi="http://sodipodi.sourceforge.net/DTD/sodipodi-0.dtd"
   xmlns:inkscape="http://www.inkscape.org/namespaces/inkscape"
   id="a58ef234-55dd-4456-b368-278f056cc5c7"
   data-name="Layer 1"
   width="1028"
   height="598.99741"
   viewBox="0 0 1028 598.99741"
   version="1.1"
   sodipodi:docname="simplefi-careers.svg"
   inkscape:version="1.0.2 (e86c8708, 2021-01-15)">
  <metadata
     id="metadata349">
    <rdf:RDF>
      <cc:Work
         rdf:about="">
        <dc:format>image/svg+xml</dc:format>
        <dc:type
           rdf:resource="http://purl.org/dc/dcmitype/StillImage" />
        <dc:title>open source</dc:title>
      </cc:Work>
    </rdf:RDF>
  </metadata>
  <defs
     id="defs347">
    <rect
       x="698.99215"
       y="106.79047"
       width="43.687009"
       height="56.307701"
       id="rect1357" />
  </defs>
  <sodipodi:namedview
     pagecolor="#ffffff"
     bordercolor="#666666"
     borderopacity="1"
     objecttolerance="10"
     gridtolerance="10"
     guidetolerance="10"
     inkscape:pageopacity="0"
     inkscape:pageshadow="2"
     inkscape:window-width="1390"
     inkscape:window-height="769"
     id="namedview345"
     showgrid="false"
     inkscape:zoom="1.0300545"
     inkscape:cx="265.53601"
     inkscape:cy="183.00003"
     inkscape:window-x="50"
     inkscape:window-y="625"
     inkscape:window-maximized="0"
     inkscape:current-layer="a58ef234-55dd-4456-b368-278f056cc5c7"
     inkscape:document-rotation="0" />
  <title
     id="title228">open source</title>
  <circle
     cx="332.00497"
     cy="292.00357"
     r="292.00357"
     fill="#f2f2f2"
     id="circle230"
     style="fill:#57c3e1;fill-opacity:1" />
  <path
     d="m 324.28242,206.27176 a 4.6094807,4.6094807 0 0 0 -5.50617,1.43069 c -2.19583,2.7922 -5.19208,8.91933 -4.04186,20.93823 l 4.45485,46.5494 0.70915,46.92136 c 0,0 6.70104,21.63269 16.51288,21.42868 9.81184,-0.204 -8.12626,-20.7208 -8.12626,-20.7208 0,0 2.48765,-37.22417 1.46523,-47.90764 -0.95316,-9.95954 8.48186,-62.45943 -5.46782,-68.63992 z"
     fill="#ffb8b8"
     id="path1500"
     style="stroke-width:0.525903" />
  <path
     d="m 310.185,184.97438 -5.62467,15.52793 8.04048,2.52995 1.12903,22.53369 -19.93538,-10.93806 -10.04065,-11.26985 -1.25286,-8.64833 c 0,0 7.74275,-1.3678 10.55804,-18.78456 z"
     fill="#ffb8b8"
     id="path1502"
     style="stroke-width:0.525903" />
  <path
     d="m 288.29953,196.96489 c 0,0 -3.85442,-5.87816 -6.18624,-5.3917 -2.33182,0.48647 -15.08114,0.19301 -17.11521,4.5772 -2.03408,4.38419 7.65228,49.86518 6.09574,56.62468 -1.55653,6.75951 -9.82259,57.4873 -2.70923,61.44814 7.11336,3.96084 15.42949,-15.0985 15.42949,-15.0985 0,0 22.36303,-9.61523 41.34328,-3.42775 18.98026,6.18748 13.15375,-2.24914 13.15375,-2.24914 0,0 -13.59733,-13.25027 -11.52933,-30.75861 2.068,-17.50834 2.99513,-18.93922 -0.49964,-27.86231 0,0 -0.62347,-13.97694 -0.1739,-17.78312 0.44956,-3.80618 3.23094,-8.09879 1.16886,-9.89602 -2.06207,-1.79723 -23.46406,-6.73701 -23.46406,-6.73701 0,0 10.84986,4.41877 5.9165,7.67539 -4.93337,3.25663 -21.43001,-11.12125 -21.43001,-11.12125 z"
     fill="#3f3d56"
     id="path1516"
     style="stroke-width:0.525903;fill:#3f3d56;fill-opacity:1" />
  <path
     d="m 928.14935,517.99739 a 12.360114,13.68982 0 0 1 -0.15341,2.12 c -6.44665,43.76 -211.68675,78.88 -463.92127,78.88001 C 211.84016,598.99741 6.5999724,563.87741 0.15348773,520.11741 A 12.346815,13.67509 0 0 1 0,517.99741 c 0,-0.2 0,-0.41 0.01805738,-0.61 0,-0.11005 0.0090286,-0.21 0.0090286,-0.32 a 0.44190022,0.48944 1.1436975e-5 0 0 0.0090286,-0.12 c 0.03611476,-0.45 0.0902869,-0.88 0.16251642,-1.32 2.9433529,-17.89 39.139372,-34.33 98.177975,-47.5 48.285434,-10.77 111.856434,-19.36 185.024944,-24.76001 55.52645,-4.1 116.57845,-6.37 180.67312,-6.37 51.57187,0 101.1755,1.47 147.51074,4.17 h 0.0181 q 14.54522,0.855 28.65706,1.87 c 64.40164,4.61999 121.55326,11.68999 167.59957,20.53999 28.32301,5.45 52.45669,11.58 71.49814,18.22 h 0.01 c 29.30709,10.23 46.58809,21.7 48.58343,33.83 0.0723,0.44 0.12632,0.87 0.16242,1.32 a 0.43932704,0.48659 1.1503962e-5 0 0 0.01,0.12 c 0,0.11 0.01,0.21 0.01,0.32 0.0181,0.19997 0.0181,0.40999 0.0181,0.61 z"
     fill="#3f3d56"
     id="path232"
     style="stroke-width:0.950194" />
  <ellipse
     cx="477"
     cy="571.99744"
     rx="165"
     ry="24"
     opacity="0.1"
     id="ellipse234" />
  <path
     d="M618,621.2487c0,15.13-94.92,27.4-212,27.4s-212-12.27-212-27.4a4.372,4.372,0,0,1,.96-2.62c53.48-10.77,123.89-19.36,204.93-24.76q3.045-.015,6.11-.01C523.08,593.85869,618,606.1187,618,621.2487Z"
     transform="translate(-86 -150.5013)"
     opacity="0.1"
     id="path238" />
  <path
     d="m 753.41688,483.9712 c 0,30.20754 -67.93425,20.86407 -151.11288,20.86407 -83.17863,0 -150.10359,9.3435 -150.10359,-20.86407 0,-30.20758 67.925,-36.77743 151.10359,-36.77743 83.17859,0 150.11288,6.56988 150.11288,36.77743 z"
     opacity="0.1"
     id="path256"
     style="stroke-width:0.787275" />
  <path
     d="M825.54156,561.34329l3.43359,14.16355a.88462.88462,0,0,1-.01719.478l-15.57547,48.67335a.88465.88465,0,0,1-1.72156-.16974l-2.15469-18.96122a.88471.88471,0,0,1,.03787-.374l14.29657-43.87567A.88465.88465,0,0,1,825.54156,561.34329Z"
     transform="translate(-86 -150.5013)"
     fill="#2f2e41"
     id="path260" />
  <path
     d="M755.06392,628.58381c.52836,1.58507,54.949-.52835,55.47732-1.05671a11.4687,11.4687,0,0,0,1.16235-2.11342c.49669-1.05671.95107-2.11342.95107-2.11342l-2.11342-17.10815L756.649,604.27946s-1.34734,14.49808-1.62209,21.13422A15.85321,15.85321,0,0,0,755.06392,628.58381Z"
     transform="translate(-86 -150.5013)"
     fill="#2f2e41"
     id="path264" />
  <polygon
     points="717.673 458.005 718.729 472.799 694.953 472.799 694.953 458.005 717.673 458.005"
     opacity="0.1"
     id="polygon266" />
  <polygon
     points="687.028 462.76 687.17 462.732 686.5 469.1 673.291 469.1 673.291 462.76 687.028 462.76"
     opacity="0.1"
     id="polygon268" />
  <path
     d="M755.06392,628.58381c.52836,1.58507,54.949-.52835,55.47732-1.05671a11.4687,11.4687,0,0,0,1.16235-2.11342H755.0269A15.85321,15.85321,0,0,0,755.06392,628.58381Z"
     transform="translate(-86 -150.5013)"
     opacity="0.1"
     id="path270" />
  <path
     d="M671.05541,573.10649h14.79395l36.45652-14.26559s25.88942-10.56711,23.776,9.5104S740.27,615.37493,740.27,615.37493s-11.62382-5.28356-17.96409-3.69849-2.11342-32.22968-2.11342-32.22968-51.77883,24.8327-56.534,21.66257-5.81191-25.36106-5.81191-25.36106Z"
     transform="translate(-86 -150.5013)"
     fill="#2f2e41"
     id="path272" />
  <path
     d="M671.05541,573.10649h14.79395l36.45652-14.26559s25.88942-10.56711,23.776,9.5104S740.27,615.37493,740.27,615.37493s-11.62382-5.28356-17.96409-3.69849-2.11342-32.22968-2.11342-32.22968-51.77883,24.8327-56.534,21.66257-5.81191-25.36106-5.81191-25.36106Z"
     transform="translate(-86 -150.5013)"
     opacity="0.1"
     id="path274" />
  <path
     d="M694.36337,526.77716l17.90376,25.72347,41.74008,34.87146s38.56994,8.982,33.28639,15.32231-37.51323-6.34027-37.51323-6.34027S701.7,561.48268,700.115,558.8409s-19.0208-27.47448-19.0208-27.47448Z"
     transform="translate(-86 -150.5013)"
     fill="#a0616a"
     id="path276" />
  <path
     d="M694.36337,526.77716l17.90376,25.72347,41.74008,34.87146s38.56994,8.982,33.28639,15.32231-37.51323-6.34027-37.51323-6.34027S701.7,561.48268,700.115,558.8409s-19.0208-27.47448-19.0208-27.47448Z"
     transform="translate(-86 -150.5013)"
     opacity="0.1"
     id="path278" />
  <circle
     cx="605.66127"
     cy="324.33109"
     r="23.77599"
     fill="#a0616a"
     id="circle280" />
  <path
     d="M690.0762,495.9666s-7.92533,13.73724-9.51039,21.13422-23.776-14.79395-23.776-14.79395l-2.90595-7.66115s20.87-9.77458,19.285-17.69991S690.0762,495.9666,690.0762,495.9666Z"
     transform="translate(-86 -150.5013)"
     fill="#a0616a"
     id="path282" />
  <path
     d="M683.73594,506.00536l11.62382,22.71928s-2.64178,11.09546-6.86862,12.15217-22.19093-13.73724-22.19093-13.73724Z"
     transform="translate(-86 -150.5013)"
     fill="#d0cde1"
     id="path284" />
  <path
     d="M694.30305,537.17833l21.66257,28.53119,51.77883,38.56994s37.51323,7.92534,29.05955,13.73724-32.758-5.28355-32.758-5.28355-52.30718-28.00284-63.40265-39.62666-31.70132-31.173-31.70132-31.173Z"
     transform="translate(-86 -150.5013)"
     fill="#a0616a"
     id="path286" />
  <path
     d="M665.2435,581.56018l6.34026,10.03875,37.83932-11.9045a29.75135,29.75135,0,0,1,24.7708,2.98851c6.60444,4.1608,10.83129,10.76524,1.32089,20.53981-19.0208,19.54915-31.70133,8.982-31.70133,8.982s-63.931,30.11625-74.49811,15.3223-11.09546-22.19093-11.09546-22.19093S658.90323,579.97511,665.2435,581.56018Z"
     transform="translate(-86 -150.5013)"
     fill="#2f2e41"
     id="path288" />
  <path
     d="M744.49681,616.43164s16.90737,11.09546-3.17013,16.379-34.87146-2.11343-34.87146-2.11343-17.43573,0-17.43573-8.982,5.81191-10.03875,5.81191-10.03875l17.96409,2.64178S734.45806,608.50631,744.49681,616.43164Z"
     transform="translate(-86 -150.5013)"
     fill="#d0cde1"
     id="path290" />
  <path
     d="M711.16583,468.8514a17.728,17.728,0,0,0,4.98235,1.78469,4.548,4.548,0,0,0,4.59533-1.96886,6.18073,6.18073,0,0,0,.522-2.7952c.06365-2.90132-.14619-6.03778-1.98475-8.28309-1.1701-1.429-2.87816-2.32977-4.08936-3.72406a17.59821,17.59821,0,0,1-2.06717-3.37767c-2.35552-4.42406-5.84318-8.67589-10.69025-9.9513a23.18347,23.18347,0,0,0-6.24-.47707l-12.20625.17221a21.25081,21.25081,0,0,0-5.872.632c-3.92885,1.1879-6.78945,4.49179-9.40936,7.65139a47.85117,47.85117,0,0,0-5.39639,7.44763,26.133,26.133,0,0,0-3.09771,12.80437,11.97989,11.97989,0,0,0,.43881,3.38808,18.80129,18.80129,0,0,0,1.33168,2.925c2.28907,4.49613,3.64824,10.1121,1.07032,14.44908,4.47812-1.82926,8.90892-4.22774,11.863-8.05834,1.3215-1.71364,2.35787-3.7197,4.119-4.9772s4.63076-1.36658,5.76072.479a5.163,5.163,0,0,1,.58258,2.41835,11.084,11.084,0,0,0,.66762,4.08133,3.05833,3.05833,0,0,0,3.32224,1.8956c2.30039-.648,2.0801-4.17861,3.85194-5.78243,1.3456-1.218,3.42157-.98516,5.15028-1.53807a7.64334,7.64334,0,0,0,4.38653-4.32052c.65453-1.46807.64508-5.3098,1.88365-6.10481C706.19386,466.62453,709.72609,468.20958,711.16583,468.8514Z"
     transform="translate(-86 -150.5013)"
     fill="#2f2e41"
     id="path292" />
  <path
     d="M651.99646,492.13947a6.27057,6.27057,0,0,1,3.26389.00831c3.39162.91054,10.99473,3.321,12.62493,6.989,2.11342,4.7552,9.51039,12.15217,9.51039,12.15217s10.03876,10.03875,7.92534,16.90737-10.03876,14.794-10.03876,14.794,2.11342,32.758-8.45368,41.21172-14.794,2.64178-14.794,10.56711-32.758,32.758-39.0983,17.43573c0,0,3.17014-28.5312,2.11343-38.56995C614.00826,563.74087,615.53292,502.01108,651.99646,492.13947Z"
     transform="translate(-86 -150.5013)"
     fill="#d0cde1"
     id="path294" />
  <path
     d="M668.942,505.477s32.22968,23.776,26.41777,33.81475c0,0-19.54915,9.5104-23.776,8.982s-20.60586-19.02079-24.8327-20.60586S640.4108,497.55167,668.942,505.477Z"
     transform="translate(-86 -150.5013)"
     fill="#d0cde1"
     id="path296" />
  <path
     d="m 469.81065,376.28144 c -5.01266,1.69284 -9.5539,5.65228 -10.58039,10.84253 -0.47582,2.40592 -0.18409,4.907 -0.58451,7.32661 -0.92865,5.61161 -5.33358,9.89722 -9.39638,13.878 -4.0628,3.98078 -8.2584,8.60617 -8.55492,14.28636 -0.3247,6.22 4.1862,12.047 3.40563,18.22633 -0.90687,7.17909 -8.48947,11.831 -10.36389,18.82016 -1.25164,4.667 0.28211,9.6942 2.8055,13.81484 4.80858,7.85231 13.0279,13.18323 21.78085,16.041 8.75295,2.85777 18.07506,3.45905 27.28222,3.55552 11.21079,0.11746 23.38277,-0.845 31.806,-8.244 a 25.48043,25.48043 0 0 0 8.459,-16.5882 c 0.8002,-8.57064 -2.77695,-17.42641 -0.30951,-25.67311 1.55287,-5.19 5.44709,-9.93 4.86592,-15.316 -0.56823,-5.26625 -5.16773,-8.99907 -8.32312,-13.25346 -2.9461,-3.97222 -4.7338,-8.66319 -6.48587,-13.28794 l -5.99481,-15.82383 c -1.17848,-3.1107 -2.47257,-6.38232 -5.09885,-8.424 -4.91665,-3.8221 -12.82242,-3.07115 -18.57152,-2.28285 -5.33345,0.7313 -11.01234,0.3699 -16.14135,2.10204 z"
     fill="#2f2e41"
     id="path298" />
  <path
     d="m 471.68806,422.37617 c 0,0 2.65748,8.63681 -17.27362,18.60236 -19.9311,9.96555 1.99311,20.59548 1.99311,20.59548 l 23.25295,5.315 c 0,0 23.91732,-3.32185 26.5748,-7.30808 2.65748,-3.98623 7.30808,-17.27362 5.97934,-19.26673 a 31.0614,31.0614 0 0 0 -3.32186,-3.98622 c 0,0 -15.94488,-2.65748 -15.28051,-9.96555 0.66437,-7.30807 -21.92421,-3.98626 -21.92421,-3.98626 z"
     fill="#ffb9b9"
     id="path300" />
  <path
     d="m 471.68806,422.37617 c 0,0 2.65748,8.63681 -17.27362,18.60236 -19.9311,9.96555 1.99311,20.59548 1.99311,20.59548 l 23.25295,5.315 c 0,0 23.91732,-3.32185 26.5748,-7.30808 2.65748,-3.98623 7.30808,-17.27362 5.97934,-19.26673 a 31.0614,31.0614 0 0 0 -3.32186,-3.98622 c 0,0 -15.94488,-2.65748 -15.28051,-9.96555 0.66437,-7.30807 -21.92421,-3.98626 -21.92421,-3.98626 z"
     opacity="0.1"
     id="path302" />
  <circle
     cx="484.64328"
     cy="414.73593"
     r="21.25984"
     fill="#ffb9b9"
     id="circle304" />
  <path
     d="m 482.318,459.58089 c 0,0 -25.60367,-1.87245 -26.08923,-19.53858 0,0 -9.12238,-1.05689 -11.77986,1.60059 -2.65748,2.65748 -11.2943,4.65059 -11.2943,11.29429 0,6.6437 14.61615,26.57481 14.61615,26.57481 0,0 7.97244,26.5748 4.65059,31.22539 -3.32185,4.65059 -3.98622,16.60925 -3.98622,16.60925 0,0 33.2185,-2.65748 38.53346,0 5.31496,2.65748 26.57481,2.65748 27.90355,0 1.32874,-2.65748 -1.32874,-35.876 -1.32874,-35.876 0,0 5.97933,-7.97244 4.65059,-17.27362 l 15.94486,-18.60232 c 0,0 -5.97933,-17.938 -15.28051,-17.938 0,0 -12.623,-3.32185 -12.95522,-1.66092 -0.33222,1.66093 6.31152,20.26326 -23.58512,23.58511 z"
     fill="#ff6584"
     id="path306"
     style="fill:#f9f9f9;fill-opacity:1" />
  <path
     d="m 422.52467,518.04546 c 0,0 5.97933,9.30118 21.25985,11.29429 15.28052,1.99311 17.938,-3.32185 16.60925,-4.65059 -1.32875,-1.32874 -17.27362,-7.30807 -17.27362,-7.30807 l -9.30119,-7.30807 z"
     fill="#ffb9b9"
     id="path308" />
  <path
     d="m 531.48137,510.07302 -17.27362,9.96555 c 0,0 -22.58859,-1.32874 -13.95178,5.315 8.63681,6.64374 24.5817,3.98622 24.5817,3.98622 l 15.28051,-7.30807 z"
     fill="#ffb9b9"
     id="path310" />
  <path
     d="m 445.11326,527.34664 c 0,0 -15.94489,39.19784 3.32185,45.17717 19.26674,5.97933 72.41634,4.65059 84.375,-3.32185 11.95866,-7.97244 15.28051,-18.60236 13.2874,-21.92421 -1.99311,-3.32185 -15.28051,-12.623 -24.58169,-13.2874 -9.30118,-0.6644 -76.40256,-6.64371 -76.40256,-6.64371 z"
     fill="#2f2e41"
     id="path312" />
  <path
     d="m 445.11326,527.34664 c 0,0 -15.94489,39.19784 3.32185,45.17717 19.26674,5.97933 72.41634,4.65059 84.375,-3.32185 11.95866,-7.97244 15.28051,-18.60236 13.2874,-21.92421 -1.99311,-3.32185 -15.28051,-12.623 -24.58169,-13.2874 -9.30118,-0.6644 -76.40256,-6.64371 -76.40256,-6.64371 z"
     opacity="0.05"
     id="path314" />
  <path
     d="m 520.37766,529.78188 c 0,0 56.28087,-20.37323 55.6165,4.20847 -0.66437,24.5817 -35.876,31.22539 -35.876,31.22539 l -10.62992,1.32874 -58.46457,1.99311 c 0,0 1.99311,-10.62992 -2.65748,-11.95866 0,0 15.28051,-3.98622 15.94488,-4.65059 0.66437,-0.66437 38.53347,-13.95177 41.19095,-14.61614 2.65748,-0.66437 10.62992,-5.97934 16.60925,-5.315 0,0 6.6437,-5.315 13.95177,-3.98622 l -20.59547,1.32874 z"
     fill="#2f2e41"
     id="path316" />
  <path
     d="m 520.37766,529.78188 c 0,0 56.28087,-20.37323 55.6165,4.20847 -0.66437,24.5817 -35.876,31.22539 -35.876,31.22539 l -10.62992,1.32874 -58.46457,1.99311 c 0,0 1.99311,-10.62992 -2.65748,-11.95866 0,0 15.28051,-3.98622 15.94488,-4.65059 0.66437,-0.66437 38.53347,-13.95177 41.19095,-14.61614 2.65748,-0.66437 10.62992,-5.97934 16.60925,-5.315 0,0 6.6437,-5.315 13.95177,-3.98622 l -20.59547,1.32874 z"
     opacity="0.1"
     id="path318" />
  <polygon
     points="584.714,533.99 588.036,525.354 576.741,523.36 554.035,527.347 544.187,530.004 534.434,533.081 541.53,549.271 "
     fill="#2f2e41"
     id="polygon320"
     transform="translate(-24)" />
  <polygon
     points="584.714,533.99 588.036,525.354 576.741,523.36 554.035,527.347 544.187,530.004 534.434,533.081 541.53,549.271 "
     opacity="0.1"
     id="polygon322"
     transform="translate(-24)" />
  <path
     d="m 418.53845,552.5927 c 0,0 12.623,15.94488 27.23918,19.9311 14.61618,3.98622 22.58858,-1.32874 22.58858,-1.32874 l -4.65059,-18.60236 -1.99311,-11.95866 -8.63681,-5.97934 -17.27363,-7.97245 -20.59547,-6.6437 c 0,0 -8.63681,-1.32874 -8.63681,0 0,1.32874 7.97244,21.25985 7.97244,21.25985 z"
     fill="#2f2e41"
     id="path324" />
  <path
     d="m 433.819,561.22952 c 0,0 2.65748,19.26673 5.97934,20.59547 3.32186,1.32874 13.2874,-1.32874 15.94488,-2.65748 2.65748,-1.32874 11.69054,-7.45919 11.69054,-7.45919 0,0 -31.62169,-11.80754 -33.61476,-10.4788 z"
     fill="#f2f2f2"
     id="path326" />
  <polygon
     points="518.277,563.223 530.9,565.216 529.571,580.496 511.964,576.22 "
     fill="#ffb9b9"
     id="polygon328"
     transform="translate(-24)" />
  <path
     d="m 502.18567,567.47525 c 0,0 -5.91592,7.04167 0.0634,11.02789 l 3.98622,3.32185 c 0,0 13.28741,2.65748 14.61615,3.98622 1.32874,1.32874 6.6437,-1.99311 6.6437,-1.99311 0,0 0.66437,-19.9311 0,-21.25984 -0.66437,-1.32874 -8.63681,-2.65748 -9.30118,-1.32874 -0.66437,1.32874 -8.63682,3.32185 -13.28741,1.99311 z"
     fill="#f2f2f2"
     id="path330" />
  <path
     d="m 449.09948,531.99723 c 0,0 -46.50591,-27.23917 -53.814,-17.27362 -7.30809,9.96555 -15.28051,23.91733 5.97933,34.54725 21.25984,10.62992 87.69685,32.55413 87.69685,32.55413 0,0 9.96555,-15.28051 9.96555,-19.26673 0,0 -35.21161,-15.94488 -41.19094,-17.27362 -5.97933,-1.32874 -29.89666,-16.60926 -33.21851,-17.938 -3.32185,-1.32874 -7.97244,-5.315 -7.97244,-5.315 z"
     fill="#2f2e41"
     id="path332" />
  <path
     d="m 435.81207,449.61534 -2.65748,1.99311 c 0,0 -5.97933,15.28052 -6.6437,23.91733 -0.66437,8.63681 -8.63681,35.21161 -7.97244,38.53346 0.66437,3.32185 1.32874,5.97933 5.315,9.30118 0,0 5.315,-11.95866 14.61615,-9.96555 l 11.29429,-41.19094 z"
     fill="#ff6584"
     id="path334"
     style="fill:#f9f9f9;fill-opacity:1" />
  <path
     d="m 528.82389,449.61534 5.315,5.97933 c 0,0 3.32185,7.97245 3.32185,9.96556 0,1.99311 6.6437,31.22539 7.30807,32.55413 0.66437,1.32874 3.32185,17.938 0,21.92421 -3.32185,3.98621 -9.30118,6.6437 -9.30118,6.6437 0,0 3.98622,-13.95177 -8.63681,-14.61614 l 1.32874,-5.315 -11.95866,-39.8622 z"
     fill="#ff6584"
     id="path336"
     style="fill:#f2f2f2;fill-opacity:1" />
  <path
     d="m 437.14082,495.35632 v 34.9949 a 8.41342,8.41342 0 0 0 8.2888,8.41251 l 73.18511,1.08423 a 8.41344,8.41344 0 0 0 8.53185,-8.08916 l 1.34611,-34.999 a 8.41344,8.41344 0 0 0 -8.28529,-8.73591 l -74.53123,-1.08016 a 8.41342,8.41342 0 0 0 -8.53535,8.41259 z"
     fill="#3f3d56"
     id="path338" />
  <ellipse
     cx="485.89011"
     cy="401.73199"
     rx="22.884121"
     ry="12.32222"
     fill="#2f2e41"
     id="ellipse340" />
  <circle
     cx="481.98581"
     cy="513.72705"
     r="5.31496"
     fill="#f2f2f2"
     id="circle342"
     style="fill:#ffffff;fill-opacity:1" />
  <polygon
     points="193.947,493.101 182.761,498.933 245.882,401.346 250.892,405.064 "
     fill="#002e4e"
     stroke="#002e4e"
     stroke-miterlimit="10"
     stroke-width="1.12412"
     id="polygon1482"
     transform="matrix(0.52590346,0,0,0.52590346,138.59578,113.7036)" />
  <polygon
     points="217.293,152.818 22.229,398.446 0,381.559 197.236,139.002 "
     fill="#c5cae9"
     id="polygon1484"
     transform="matrix(0.52590346,0,0,0.52590346,138.59578,113.7036)" />
  <polygon
     points="122.019,310.174 102.621,297.215 139.157,251.209 160.463,264.374 "
     fill="#1a237e"
     id="polygon1486"
     transform="matrix(0.52590346,0,0,0.52590346,138.59578,113.7036)" />
  <polygon
     points="187.485,391.793 131.72,296.226 146.766,280.691 213.672,390.192 "
     fill="#1a237e"
     id="polygon1488"
     transform="matrix(0.52590346,0,0,0.52590346,138.59578,113.7036)" />
  <rect
     x="170.9738"
     y="318.40353"
     width="102.99431"
     height="4.8441124"
     fill="#1a237e"
     id="rect1490"
     style="stroke-width:0.525903" />
  <rect
     x="176.55627"
     y="327.99673"
     width="12.892602"
     height="167.55927"
     fill="#1a237e"
     id="rect1492"
     style="stroke-width:0.525903" />
  <rect
     x="284.38531"
     y="327.99673"
     width="12.01356"
     height="167.55927"
     fill="#1a237e"
     id="rect1494"
     style="stroke-width:0.525903" />
  <rect
     x="145.75938"
     y="322.24445"
     width="185.80112"
     height="9.9573412"
     fill="#536dfe"
     id="rect1496"
     style="stroke-width:0.525903" />
  <ellipse
     cx="306.64124"
     cy="158.53049"
     rx="24.722532"
     ry="25.183418"
     fill="#ff6584"
     id="ellipse1498"
     style="stroke-width:0.525903" />
  <path
     d="m 347.93018,314.70527 c 0,0 35.17322,35.97316 26.10977,54.9409 -9.06345,18.96774 -53.29579,85.36607 -53.29579,85.36607 l -11.83298,-15.35078 c 0,0 11.63108,-8.61378 17.04794,-28.8007 5.41685,-20.18692 17.67732,-34.12931 21.29593,-39.09158 3.61862,-4.96228 -33.97634,-39.68774 -30.65548,-48.54776 3.32085,-8.86002 31.33061,-8.51615 31.33061,-8.51615 z"
     fill="#ffb8b8"
     id="path1504"
     style="stroke-width:0.525903" />
  <path
     d="m 347.93018,314.70527 c 0,0 35.17322,35.97316 26.10977,54.9409 -9.06345,18.96774 -53.29579,85.36607 -53.29579,85.36607 l -11.83298,-15.35078 c 0,0 11.63108,-8.61378 17.04794,-28.8007 5.41685,-20.18692 17.67732,-34.12931 21.29593,-39.09158 3.61862,-4.96228 -33.97634,-39.68774 -30.65548,-48.54776 3.32085,-8.86002 31.33061,-8.51615 31.33061,-8.51615 z"
     opacity="0.1"
     id="path1506"
     style="stroke-width:0.525903" />
  <path
     d="m 325.82936,444.0517 c 0,0 3.67459,7.40063 2.56764,10.35399 -1.10695,2.95336 -6.91145,20.00374 -6.91145,20.00374 0,0 6.1803,24.69728 1.6965,24.14774 -4.48381,-0.54954 -20.71068,-17.21109 -19.99138,-23.30095 l 2.068,-17.50834 -5.02329,4.01786 -6.39405,-10.05069 8.91162,-11.2638 c 0,0 9.569,-10.411 12.5582,-10.04464 2.98921,0.36636 10.51821,13.64509 10.51821,13.64509 z"
     fill="#2f2e41"
     id="path1508"
     style="stroke-width:0.525903" />
  <path
     d="m 318.84144,323.49619 2.35982,5.69501 9.91089,44.46079 c 0,0 3.94433,5.11694 2.71354,21.95563 -1.23079,16.8387 19.8837,81.97892 19.8837,81.97892 l 0.71338,13.21571 -12.70411,-1.55701 -8.66395,-16.50694 c 0,0 -3.25302,-17.38823 -12.75421,-33.22548 -9.5012,-15.83726 -9.48931,-54.44841 -9.48931,-54.44841 l -25.57029,-59.50828 20.12113,-9.88999 z"
     fill="#ffb8b8"
     id="path1510"
     style="stroke-width:0.525903" />
  <path
     d="m 349.37743,469.33308 c 0,0 3.82642,-0.30329 4.3939,1.31076 0.56747,1.61405 12.0069,33.1339 12.0069,33.1339 0,0 21.75571,21.20044 11.11367,21.44065 -10.64204,0.24022 -28.48734,-2.71916 -31.50454,-9.26694 -3.01721,-6.54779 -6.51197,-15.4709 -6.51197,-15.4709 l -1.07895,9.13479 -8.42813,-5.66646 c 0,0 -4.7137,-30.69555 0.78714,-32.33812 5.50085,-1.64258 19.22198,-2.27768 19.22198,-2.27768 z"
     fill="#2f2e41"
     id="path1512"
     style="stroke-width:0.525903" />
  <path
     d="m 336.54676,295.54832 c 0,0 8.9057,8.04175 8.06849,8.71139 -0.83721,0.66965 5.0513,2.16357 3.94432,5.11693 -1.10698,2.95337 4.98937,9.10627 2.00016,8.73991 -2.9892,-0.36636 -14.58636,-4.8767 -27.41429,7.45164 l -2.24193,-0.27477 0.29774,3.89775 c 0,0 -9.29335,-11.17827 -33.30281,5.95769 0,0 -7.95057,-3.29118 -6.84362,-6.24452 1.10696,-2.95334 -12.91193,-6.216 -5.34309,-25.36691 7.56884,-19.15092 31.00494,-18.59536 31.00494,-18.59536 z"
     fill="#2f2e41"
     id="path1514"
     style="stroke-width:0.525903" />
  <ellipse
     cx="307.31964"
     cy="170.72267"
     rx="18.064568"
     ry="18.40134"
     fill="#ffb8b8"
     id="ellipse1518"
     style="stroke-width:0.525903" />
  <path
     d="m 269.34872,194.01962 a 4.6119788,4.6119788 0 0 1 5.47308,1.55687 c 2.13344,2.84195 4.99322,9.03638 3.5771,21.02579 l -5.48468,46.43517 -1.74819,46.89313 c 0,0 1.12903,22.53368 -8.67579,22.10424 -9.80482,-0.42943 0.27566,-21.58927 0.27566,-21.58927 0,0 -1.66259,-37.27187 -0.40381,-47.92912 1.17347,-9.93512 -7.09639,-62.63848 6.98663,-68.49681 z"
     fill="#ffb8b8"
     id="path1520"
     style="stroke-width:0.525903" />
  <path
     d="m 293.73681,113.7036 a 13.546484,13.546484 0 0 0 7.79757,5.46038 c 5.45267,1.48732 0.0445,9.83393 0.0445,9.83393 0,0 1.9666,-3.03513 -0.86995,-6.24941 -2.83655,-3.21429 -7.40126,-5.41182 -6.97216,-9.0449 z"
     fill="#ff6584"
     id="path1522"
     style="stroke-width:0.525903" />
  <ellipse
     cx="302.5452"
     cy="131.00015"
     rx="6.8898878"
     ry="7.0183287"
     fill="#ff6584"
     id="ellipse1524"
     style="stroke-width:0.525903" />
  <path
     d="m 293.74866,136.88268 c 5.61675,-2.16406 14.96916,-3.26135 19.78074,-2.51127 l -0.65989,-4.9083 c -4.62572,2.43529 -13.93522,3.57972 -19.78074,2.51128 z"
     fill="#3f3d56"
     id="path1526"
     style="stroke-width:0.525903" />
  <path
     d="m 304.61709,138.63958 c 0,0 7.03932,11.92707 23.40814,16.39197 16.36882,4.4649 0.13371,29.52126 0.13371,29.52126 0,0 5.90368,-9.1114 -2.61157,-18.76062 -8.51524,-9.64921 -22.21849,-16.24617 -20.93028,-27.15261 z"
     fill="#ff6584"
     id="path1528"
     style="stroke-width:0.525903" />
  <path
     d="m 304.05841,137.91482 c 0,0 -6.76249,16.38236 -14.18665,17.9312 -7.42417,1.54884 -6.86105,27.43461 4.74917,31.3163 0,0 -8.46596,-15.17534 -1.22951,-25.35275 7.23646,-10.17742 11.80736,-18.22283 10.66699,-23.89475 z"
     fill="#ff6584"
     id="path1530"
     style="stroke-width:0.525903" />
  <circle
     cx="765.1001"
     cy="173.80072"
     r="101.92708"
     fill="#6c63ff"
     id="circle2233"
     style="stroke-width:0.591527;fill:#ff33cc;fill-opacity:1" />
  <path
     d="M 689.84043,105.72144 A 101.93502,101.93502 0 0 0 859.68106,213.59807 101.93586,101.93586 0 1 1 689.84043,105.72144 Z"
     opacity="0.2"
     style="isolation:isolate;stroke-width:0.591527"
     id="path2235" />
  <polygon
     points="255.027,676.148 237.038,676.148 246.032,187.616 246.506,187.616 "
     fill="#3f3d56"
     id="polygon2237"
     transform="matrix(0.59152732,0,0,0.59152732,619.84533,62.820566)" />
  <rect
     x="359.95712"
     y="720.80841"
     width="32.190128"
     height="8.5208998"
     transform="rotate(-27.76587)"
     fill="#3f3d56"
     id="rect2239" />
  <path
     d="m 629.48211,126.22821 12.79486,-10.23341 c -9.93976,-1.09662 -14.02381,4.3243 -15.69525,8.615 -7.76532,-3.22446 -16.21882,1.00135 -16.21882,1.00135 l 25.6001,9.29375 a 19.37211,19.37211 0 0 0 -6.48089,-8.67669 z"
     fill="#3f3d56"
     id="path2259" />
  <path
     d="m 501.19407,108.6113 12.79486,-10.233405 c -9.93976,-1.09662 -14.02381,4.324295 -15.69525,8.614995 -7.76532,-3.22446 -16.21882,1.00135 -16.21882,1.00135 l 25.6001,9.29375 a 19.37211,19.37211 0 0 0 -6.48089,-8.67669 z"
     fill="#3f3d56"
     id="path2259-8" />
  <path
     d="m 543.91032,218.31425 12.7948,-10.23343 c -9.93976,-1.09662 -14.0238,4.32431 -15.69525,8.615 -7.76532,-3.22445 -16.21881,1.00138 -16.21881,1.00138 l 25.60009,9.29373 a 19.37244,19.37244 0 0 0 -6.48083,-8.67668 z"
     fill="#3f3d56"
     id="path2263-7" />
</svg>
